<svg width="36" height="36" viewBox="0 0 36 36" fill="none" xmlns="http://www.w3.org/2000/svg">
<path d="M17.9241 35.8481C27.8232 35.8481 35.8481 27.8232 35.8481 17.9241C35.8481 8.02487 27.8232 0 17.9241 0C8.02487 0 0 8.02487 0 17.9241C0 27.8232 8.02487 35.8481 17.9241 35.8481Z" fill="#8247E5"/>
<path d="M23.8564 14.0891C23.4265 13.839 22.8676 13.839 22.3947 14.0891L19.0413 16.0066L16.7628 17.2571L13.4095 19.1745C12.9796 19.4246 12.4207 19.4246 11.9478 19.1745L9.28233 17.6739C8.85244 17.4238 8.55151 16.9653 8.55151 16.4651V13.5055C8.55151 13.0053 8.80945 12.5468 9.28233 12.2967L11.9048 10.8378C12.3347 10.5877 12.8936 10.5877 13.3665 10.8378L15.989 12.2967C16.4189 12.5468 16.7198 13.0053 16.7198 13.5055V15.423L18.9984 14.1308V12.2133C18.9984 11.7131 18.7404 11.2546 18.2675 11.0045L13.4095 8.25337C12.9796 8.00327 12.4207 8.00327 11.9478 8.25337L7.00381 11.0045C6.53089 11.2546 6.27295 11.7131 6.27295 12.2133V17.7573C6.27295 18.2575 6.53089 18.716 7.00381 18.9661L11.9478 21.7172C12.3777 21.9674 12.9366 21.9674 13.4095 21.7172L16.7628 19.8415L19.0413 18.5493L22.3947 16.6735C22.8246 16.4234 23.3835 16.4234 23.8564 16.6735L26.4789 18.1324C26.9087 18.3826 27.2097 18.8411 27.2097 19.3413V22.3008C27.2097 22.801 26.9517 23.2595 26.4789 23.5096L23.8564 25.0103C23.4265 25.2604 22.8676 25.2604 22.3947 25.0103L19.7722 23.5513C19.3423 23.3012 19.0413 22.8427 19.0413 22.3425V20.4251L16.7628 21.7172V23.6347C16.7628 24.1349 17.0208 24.5935 17.4937 24.8435L22.4377 27.5947C22.8676 27.8448 23.4265 27.8448 23.8994 27.5947L28.8434 24.8435C29.2733 24.5935 29.5742 24.1349 29.5742 23.6347V18.0908C29.5742 17.5905 29.3163 17.132 28.8434 16.8819L23.8564 14.0891Z" fill="white"/>
</svg>
