<svg width="72" height="72" viewBox="0 0 72 72" fill="none" xmlns="http://www.w3.org/2000/svg">
<path opacity="0.2" d="M36 71.5C55.6061 71.5 71.5 55.6061 71.5 36C71.5 16.3939 55.6061 0.5 36 0.5C16.3939 0.5 0.5 16.3939 0.5 36C0.5 55.6061 16.3939 71.5 36 71.5Z" fill="#8BC53E"/>
<path d="M43.2209 27.1832C42.7354 20.3741 37.0616 15 30.1295 15C22.8781 15 17 20.8787 17 28.1295C17 32.2312 18.8817 35.8926 21.8282 38.3004C21.7312 38.9436 21.6806 39.6009 21.6806 40.2704C21.6806 47.5218 27.5593 53.3999 34.8101 53.3999C35.4396 53.3999 36.0581 53.3528 36.664 53.2673C37.2699 53.3528 37.8884 53.3999 38.5178 53.3999C39.1472 53.3999 39.7658 53.3528 40.3716 53.2673C40.9776 53.3528 41.5961 53.3999 42.2255 53.3999C49.4769 53.3999 55.355 47.5212 55.355 40.2704C55.355 33.3549 50.0062 27.6914 43.2211 27.1831L43.2209 27.1832ZM18.9259 28.1297C18.9259 21.9422 23.942 16.9261 30.1295 16.9261C36.317 16.9261 41.3332 21.9422 41.3332 28.1297C41.3332 34.3172 36.317 39.3334 30.1295 39.3334C23.942 39.3334 18.9259 34.3172 18.9259 28.1297ZM34.8101 51.4753C28.6226 51.4753 23.6065 46.4592 23.6065 40.2717C23.6065 40.0264 23.6276 39.7862 23.6429 39.5441C24.201 39.862 24.7873 40.1347 25.3924 40.3702C25.4458 45.528 29.639 49.6937 34.8096 49.6937C40.0129 49.6937 44.2311 45.4754 44.2311 40.2721C44.2311 37.8748 43.3282 35.6932 41.8538 34.0301C42.1446 33.4536 42.3973 32.8535 42.6014 32.232C44.7021 34.2687 46.0128 37.1154 46.0128 40.2721C46.0132 46.4592 40.9971 51.4758 34.8102 51.4758L34.8101 51.4753ZM42.9798 50.5456C46.0007 48.1401 47.9397 44.4331 47.9397 40.2713C47.9397 36.1704 46.0556 32.5148 43.1109 30.1064C43.1132 30.0919 43.1144 30.0766 43.1164 30.0621C47.0085 31.8179 49.721 35.7241 49.721 40.2711C49.721 44.8712 46.9457 48.8204 42.9797 50.5455L42.9798 50.5456ZM46.6874 50.5456C49.7084 48.1401 51.6474 44.4331 51.6474 40.2713C51.6474 36.1091 49.7088 32.4022 46.6874 29.9969C50.653 31.7217 53.4283 35.6708 53.4283 40.2713C53.4283 44.8714 50.653 48.8205 46.6874 50.5456Z" fill="#74EC65"/>
<path d="M39.5515 28.1294C39.5515 33.3331 35.3336 37.5513 30.1299 37.5513C24.9263 37.5513 20.708 33.3331 20.708 28.1294C20.708 22.9261 24.9263 18.7079 30.1299 18.7079C35.3336 18.7079 39.5515 22.9261 39.5515 28.1294Z" fill="#74EC65"/>
</svg>
