<svg width="72" height="72" viewBox="0 0 72 72" fill="none" xmlns="http://www.w3.org/2000/svg">
<circle cx="36" cy="36" r="36" fill="#8247E5"/>
<path d="M44.2415 27.6121C42.6947 26.859 41.0408 26.3117 39.3117 26C39.0994 26.3995 38.8513 26.9369 38.6802 27.3644C36.8422 27.0767 35.021 27.0767 33.2167 27.3644C33.0457 26.9369 32.792 26.3995 32.5777 26C30.8468 26.3117 29.191 26.861 27.6442 27.6161C24.5243 32.5222 23.6786 37.3065 24.1015 42.0228C26.1707 43.6309 28.1761 44.6077 30.1476 45.2469C30.6344 44.5498 31.0685 43.8086 31.4425 43.0276C30.7302 42.7459 30.048 42.3983 29.4034 41.9948C29.5744 41.863 29.7417 41.7251 29.9033 41.5833C33.8351 43.497 38.107 43.497 41.9918 41.5833C42.1553 41.7251 42.3226 41.863 42.4917 41.9948C41.8452 42.4003 41.1611 42.7479 40.4488 43.0296C40.8228 43.8086 41.2551 44.5518 41.7437 45.2489C43.7172 44.6097 45.7244 43.6329 47.7936 42.0228C48.2898 36.5554 46.946 31.815 44.2415 27.6121ZM31.9782 39.1223C30.7979 39.1223 29.83 37.9756 29.83 36.5793C29.83 35.183 30.7772 34.0344 31.9782 34.0344C33.1792 34.0344 34.1471 35.181 34.1264 36.5793C34.1283 37.9756 33.1792 39.1223 31.9782 39.1223ZM39.9169 39.1223C38.7367 39.1223 37.7687 37.9756 37.7687 36.5793C37.7687 35.183 38.716 34.0344 39.9169 34.0344C41.1179 34.0344 42.0858 35.181 42.0651 36.5793C42.0651 37.9756 41.1179 39.1223 39.9169 39.1223Z" fill="white" fill-opacity="0.95"/>
</svg>
