<svg width="72" height="72" viewBox="0 0 72 72" fill="none" xmlns="http://www.w3.org/2000/svg">
<path opacity="0.2" d="M36 71.5C55.6061 71.5 71.5 55.6061 71.5 36C71.5 16.3939 55.6061 0.5 36 0.5C16.3939 0.5 0.5 16.3939 0.5 36C0.5 55.6061 16.3939 71.5 36 71.5Z" fill="#8BC53E"/>
<path d="M56.6885 27.85C56.1098 27.2268 55.2197 26.9598 54.4185 27.1824L47.5641 29.0519V29.5415C47.3862 31.4553 45.9617 33.0134 44.0922 33.3694L43.647 33.4585C41.1545 33.9038 38.5728 34.1261 36.0803 34.1261H34.0326C33.4095 34.1261 32.8754 33.6364 32.8754 32.9689C32.8754 32.3457 33.3651 31.8117 34.0326 31.8117H36.0803C38.4837 31.7673 40.8874 31.5891 43.2465 31.1886L43.6917 31.0994C44.5375 30.9659 45.205 30.2537 45.2941 29.3635C45.3385 28.8295 45.1606 28.3399 44.8489 27.939C44.4928 27.5385 44.0478 27.3159 43.5135 27.2715L32.6974 26.5149C31.4955 26.4257 30.294 26.7375 29.27 27.4497L19.9673 33.6808L29.092 41.0697L38.1721 42.2715C39.7745 42.4942 41.3769 42.0936 42.6676 41.1143L56.3769 31.144C56.9109 30.7878 57.2227 30.2091 57.267 29.5859C57.3117 28.9184 57.1338 28.2953 56.6886 27.85L56.6885 27.85Z" fill="#74EC65"/>
<path d="M15.2045 39.1111C14.8928 39.5116 14.9375 40.1348 15.338 40.4465L22.5487 46.2773C22.7266 46.4552 22.9939 46.4999 23.2609 46.4999C23.5279 46.4555 23.7505 46.3664 23.9284 46.1438L27.0441 42.3159L18.32 35.2832L15.2045 39.1111Z" fill="#74EC65"/>
</svg>
