<svg width="72" height="72" viewBox="0 0 72 72" fill="none" xmlns="http://www.w3.org/2000/svg">
<circle cx="36" cy="36" r="36" fill="#0FC5FF"/>
<path d="M48.666 29.0364C47.783 29.4384 46.834 29.71 45.838 29.8322C46.8546 29.2067 47.6353 28.2163 48.003 27.0363C47.0516 27.6153 45.9978 28.0359 44.8763 28.2626C43.978 27.2804 42.6984 26.6667 41.2822 26.6667C38.5628 26.6667 36.3581 28.9294 36.3581 31.7203C36.3581 32.1164 36.4018 32.5021 36.4857 32.872C32.3934 32.6612 28.7653 30.6492 26.3368 27.5917C25.9129 28.3381 25.6701 29.2063 25.6701 30.1324C25.6701 31.8857 26.5395 33.4326 27.8607 34.3388C27.0535 34.3126 26.2943 34.0853 25.6304 33.7067C25.63 33.7278 25.63 33.749 25.63 33.7703C25.63 36.2189 27.3273 38.2615 29.5798 38.7257C29.1666 38.8412 28.7316 38.9029 28.2825 38.9029C27.9652 38.9029 27.6567 38.8713 27.3562 38.8123C27.9827 40.8201 29.8011 42.2812 31.9557 42.322C30.2706 43.6774 28.1475 44.4853 25.8406 44.4853C25.4432 44.4853 25.0512 44.4614 24.666 44.4148C26.8451 45.8486 29.4333 46.6852 32.2139 46.6852C41.2707 46.6852 46.2233 38.9845 46.2233 32.3063C46.2233 32.0872 46.2185 31.8692 46.209 31.6525C47.171 30.94 48.0059 30.0499 48.666 29.0364Z" fill="white"/>
</svg>
