<svg width="25" height="21" viewBox="0 0 25 21" fill="none" xmlns="http://www.w3.org/2000/svg">
<path d="M24.666 3.03644C23.783 3.43839 22.834 3.71004 21.838 3.83222C22.8546 3.20674 23.6353 2.21634 24.003 1.03628C23.0516 1.61536 21.9978 2.03596 20.8763 2.26265C19.978 1.28046 18.6984 0.666687 17.2822 0.666687C14.5628 0.666687 12.3581 2.9294 12.3581 5.72029C12.3581 6.11638 12.4018 6.5021 12.4857 6.87197C8.39344 6.66122 4.7653 4.64926 2.33677 1.59176C1.91294 2.33816 1.67012 3.20629 1.67012 4.13244C1.67012 5.88572 2.53947 7.43258 3.86066 8.33882C3.05346 8.3126 2.29428 8.08528 1.63035 7.70676C1.63 7.72784 1.63 7.74902 1.63 7.77028C1.63 10.2189 3.32727 12.2615 5.57979 12.7257C5.16658 12.8412 4.73159 12.9029 4.28248 12.9029C3.96521 12.9029 3.65673 12.8713 3.35615 12.8123C3.98268 14.8201 5.8011 16.2812 7.95573 16.322C6.27058 17.6774 4.14746 18.4853 1.8406 18.4853C1.44319 18.4853 1.05122 18.4614 0.666016 18.4148C2.84506 19.8486 5.43327 20.6852 8.21391 20.6852C17.2707 20.6852 22.2233 12.9845 22.2233 6.30631C22.2233 6.08719 22.2185 5.86923 22.209 5.65254C23.171 4.94002 24.0059 4.0499 24.666 3.03644Z" fill="white"/>
</svg>
